<svg width="32" height="32" viewBox="0 0 32 32" fill="none" xmlns="http://www.w3.org/2000/svg">
<path d="M11.52 1.59996C11.52 3.07196 18.624 6.46396 20.032 5.63196C21.056 5.05596 21.056 4.92796 19.584 3.77596C17.728 2.30396 13.952 0.639956 12.48 0.639956C11.968 0.639956 11.52 1.08796 11.52 1.59996Z" fill="#F8FAFC"/>
<path d="M9.1521 4.79989C8.6401 6.14389 9.0241 6.46389 13.5681 8.31989C16.9601 9.72789 17.6001 10.2399 18.0481 12.0319C18.7521 14.6559 21.8241 16.6399 25.2801 16.6399C30.7201 16.6399 32.5761 13.9519 30.0801 9.91989C27.7761 6.20789 23.8081 4.79989 20.6081 6.65589C19.3281 7.35989 18.6881 7.23189 15.5521 5.63189C11.5201 3.58389 9.7281 3.39189 9.1521 4.79989ZM26.8801 12.2239C26.8801 12.5439 26.4321 12.7999 25.9201 12.7999C24.9601 12.7999 24.6401 12.0319 25.3441 11.3279C25.8561 10.8159 26.8801 11.3919 26.8801 12.2239Z" fill="#F8FAFC"/>
<path d="M7.61606 13.6319C6.14406 14.5919 4.99206 16.1919 4.09606 18.4319C3.39206 20.2239 2.30406 22.2719 1.72806 22.9119C0.448058 24.3199 0.320058 25.6639 1.40806 26.7519C2.49606 27.8399 4.48006 27.7119 4.48006 26.5599C4.48006 26.0479 4.73606 25.5999 5.12006 25.5999C5.44006 25.5999 5.63206 26.6879 5.56806 28.0319L5.44006 30.3999L14.2721 30.5919C22.0161 30.7199 23.1041 30.6559 23.4881 29.6959C24.0001 28.2879 22.0801 26.8799 19.7121 26.8799C17.7921 26.8799 17.4721 26.3039 18.6241 25.1519C19.0081 24.7679 19.2001 23.8079 19.0721 22.9759C18.9441 21.8239 18.1761 21.1839 16.1921 20.4799C14.6561 19.9679 13.4401 19.3279 13.4401 19.0719C13.4401 17.6639 18.9441 19.4559 19.8401 21.1199C20.2241 21.7599 20.4801 23.0399 20.4801 23.8719C20.4801 25.0239 20.9921 25.6639 22.4641 26.2399C23.8081 26.8159 24.5121 27.6479 24.7681 28.9279C25.0881 30.5919 25.3441 30.7839 27.4561 30.5919C30.5281 30.3359 31.0401 28.4159 28.2881 27.3919C25.6641 26.3679 24.4481 22.6559 25.9201 19.8399L26.9441 17.9199H24.6401C21.5681 17.9199 18.8161 16.3839 17.6001 14.0799C16.7041 12.2879 16.3201 12.1599 13.1841 12.1599C10.6881 12.1599 9.21606 12.5439 7.61606 13.6319Z" fill="#F8FAFC"/>
</svg>
